<?xml version="1.0" encoding="UTF-8" standalone="no"?>
<svg
   xmlns:dc="http://purl.org/dc/elements/1.1/"
   xmlns:cc="http://creativecommons.org/ns#"
   xmlns:rdf="http://www.w3.org/1999/02/22-rdf-syntax-ns#"
   xmlns:svg="http://www.w3.org/2000/svg"
   xmlns="http://www.w3.org/2000/svg"
   xmlns:sodipodi="http://sodipodi.sourceforge.net/DTD/sodipodi-0.dtd"
   xmlns:inkscape="http://www.inkscape.org/namespaces/inkscape"
   inkscape:export-ydpi="85"
   inkscape:export-xdpi="85"
   inkscape:export-filename="/home/crow/logo_1024_512_2.png"
   width="798.30652"
   height="400.34882"
   viewBox="0 0 91.97411 46.120184"
   preserveAspectRatio="xMidYMid"
   version="1.1"
   id="svg4"
   sodipodi:docname="logo.svg"
   inkscape:version="1.1-dev (1:0.92.0+devel+201912181124+31dae0d)">
  <metadata
     id="metadata10">
    <rdf:RDF>
      <cc:Work
         rdf:about="">
        <dc:format>image/svg+xml</dc:format>
        <dc:type
           rdf:resource="http://purl.org/dc/dcmitype/StillImage" />
        <dc:title></dc:title>
      </cc:Work>
    </rdf:RDF>
  </metadata>
  <defs
     id="defs8" />
  <sodipodi:namedview
     fit-margin-bottom="0"
     fit-margin-right="0"
     fit-margin-left="0"
     fit-margin-top="0"
     inkscape:guide-bbox="true"
     showguides="true"
     pagecolor="#ffffff"
     bordercolor="#666666"
     inkscape:document-rotation="0"
     borderopacity="1"
     objecttolerance="10"
     gridtolerance="10"
     guidetolerance="10"
     inkscape:pageopacity="0"
     inkscape:pageshadow="2"
     inkscape:window-width="2736"
     inkscape:window-height="1697"
     id="namedview6"
     showgrid="false"
     showborder="true"
     inkscape:zoom="1.6269113"
     inkscape:cx="380.62146"
     inkscape:cy="249.5477"
     inkscape:window-x="0"
     inkscape:window-y="0"
     inkscape:window-maximized="1"
     inkscape:current-layer="svg4">
    <sodipodi:guide
       id="guide28"
       orientation="0,-1"
       position="-5.9243744,25.446499" />
    <sodipodi:guide
       id="guide30"
       orientation="1,0"
       position="47.509174,39.549527" />
  </sodipodi:namedview>
  <path
     inkscape:export-ydpi="85"
     inkscape:export-xdpi="85"
     inkscape:export-filename="/home/crow/logo_1024_512.png"
     d="m 75.389656,5.282791 9.484284,5.476081 a 4.1401737,4.1401737 0 0 1 0.93294,-0.738269 c 1.966901,-1.1308138 4.475773,-0.4594128 5.618293,1.507646 1.13082,1.96706 0.45942,4.475794 -1.50763,5.618315 a 4.1207709,4.1207709 0 0 1 -1.09537,0.436162 v 10.95617 a 4.1210915,4.1210915 0 0 1 1.08366,0.433276 c 1.97876,1.142519 2.65016,3.651416 1.50763,5.618475 -1.13081,1.966899 -3.651392,2.6383 -5.618449,1.507646 a 4.0832481,4.0832481 0 0 1 -1.016643,-0.82534 l -9.426553,5.442405 a 4.1164413,4.1164413 0 0 1 0.207654,1.295658 c 0,2.26147 -1.837334,4.110829 -4.110667,4.110829 -2.273338,0 -4.110672,-1.837654 -4.110672,-4.110829 0,-0.404091 0.05805,-0.794391 0.166292,-1.163045 l -9.481722,-5.474478 a 4.1409753,4.1409753 0 0 1 -0.920106,0.7248 c -1.978768,1.130654 -4.487662,0.459253 -5.618477,-1.507646 -1.130657,-1.967059 -0.459256,-4.475956 1.507646,-5.618475 a 4.122695,4.122695 0 0 1 1.083672,-0.433436 v -10.95601 a 4.1207709,4.1207709 0 0 1 -1.09538,-0.436162 c -1.96706,-1.130654 -2.638455,-3.651255 -1.507646,-5.618315 1.130815,-1.9670588 3.651258,-2.6384598 5.618319,-1.507646 a 4.1403338,4.1403338 0 0 1 0.928449,0.733619 L 67.506184,5.2766974 A 4.1222141,4.1222141 0 0 1 67.338133,4.1077187 c 0,-2.2730145 1.837334,-4.1106687 4.110672,-4.1106687 2.273333,0 4.110667,1.8374938 4.110667,4.1106687 0,0.4085813 -0.05933,0.8028911 -0.169816,1.1750723 z m -0.988097,1.6872422 9.506891,5.4889088 a 4.1048958,4.1048958 0 0 0 0.390784,3.179976 c 0.578716,1.0067 1.521436,1.674093 2.567747,1.934187 v 10.969801 c -0.0534,0.01298 -0.10648,0.02726 -0.15924,0.04234 L 74.291075,7.0798762 c 0.0375,-0.03592 0.0744,-0.07248 0.110484,-0.109682 z M 68.609098,7.0822812 56.192586,28.587323 a 4.1409753,4.1409753 0 0 0 -0.161959,-0.0433 V 17.573105 c 1.046309,-0.260094 1.989033,-0.927487 2.56775,-1.934187 a 4.105056,4.105056 0 0 0 0.389177,-3.186069 l 9.504165,-5.4873058 c 0.03835,0.03961 0.07745,0.07857 0.117379,0.116578 z m 3.988322,0.974149 12.413622,21.5002308 a 4.0877379,4.0877379 0 0 0 -0.723674,0.923158 4.1210915,4.1210915 0 0 0 -0.433278,1.08367 H 59.043837 a 4.122695,4.122695 0 0 0 -0.433594,-1.08367 4.1411358,4.1411358 0 0 0 -0.722554,-0.917865 L 70.30372,8.0573922 a 4.1234967,4.1234967 0 0 0 1.145085,0.160995 c 0.398799,0 0.784131,-0.05644 1.148615,-0.161957 z m 1.891371,31.1852768 9.445156,-5.453309 a 4.1475499,4.1475499 0 0 1 -0.07585,-0.269716 H 59.038543 c -0.01312,0.0534 -0.02743,0.106315 -0.04265,0.159071 l 9.491337,5.48009 a 4.0983213,4.0983213 0 0 1 2.961577,-1.257495 4.0992833,4.0992833 0 0 1 3.039986,1.341359 z"
     fill="#E535AB"
     fill-rule="evenodd"
     id="path2"
     inkscape:connector-curvature="0"
     style="fill:#e535ab;fill-opacity:0.998187;stroke-width:0.160354" />
  <path
     inkscape:export-ydpi="85"
     inkscape:export-xdpi="85"
     inkscape:export-filename="/home/crow/logo_1024_512.png"
     style="fill:#e535ab;fill-opacity:0.5;stroke-width:0.160354"
     inkscape:connector-curvature="0"
     id="path2-6"
     fill-rule="evenodd"
     fill="#E535AB"
     d="m 24.466174,5.2827952 9.484284,5.4760808 a 4.1401737,4.1401737 0 0 1 0.93294,-0.738269 c 1.966896,-1.1308138 4.47579,-0.4594128 5.618325,1.507646 1.130835,1.96706 0.459426,4.475795 -1.507659,5.618315 a 4.1207709,4.1207709 0 0 1 -1.09538,0.436162 v 10.956172 a 4.1210915,4.1210915 0 0 1 1.083672,0.433276 c 1.978793,1.142519 2.650202,3.651413 1.507657,5.61847 -1.130825,1.966901 -3.651421,2.638302 -5.618482,1.507648 a 4.0832481,4.0832481 0 0 1 -1.016643,-0.825343 l -9.426558,5.442408 a 4.1164413,4.1164413 0 0 1 0.20766,1.295656 c 0,2.261472 -1.837335,4.110831 -4.110667,4.110831 -2.273338,0 -4.110671,-1.837654 -4.110671,-4.110831 0,-0.404088 0.05805,-0.794391 0.166287,-1.163043 L 7.0992215,35.373496 a 4.1409753,4.1409753 0 0 1 -0.920109,0.7248 c -1.978765,1.130654 -4.487659,0.459253 -5.61847502,-1.507648 -1.130653,-1.967057 -0.459253,-4.475951 1.50764602,-5.61847 a 4.122695,4.122695 0 0 1 1.083671,-0.433439 V 17.58273 A 4.1207709,4.1207709 0 0 1 2.0565775,17.146568 C 0.08951848,16.015913 -0.58188152,13.495313 0.54893148,11.528253 1.6797475,9.5611942 4.2001875,8.8897932 6.1672465,10.020607 a 4.1403338,4.1403338 0 0 1 0.928449,0.733619 L 16.582703,5.2767012 A 4.1222141,4.1222141 0 0 1 16.414652,4.1077226 c 0,-2.2730145 1.837333,-4.1106687 4.110671,-4.1106687 2.273332,0 4.110667,1.8374937 4.110667,4.1106687 0,0.4085811 -0.05933,0.8028911 -0.169816,1.1750726 z m -0.988097,1.687242 9.50689,5.4889088 a 4.1048958,4.1048958 0 0 0 0.390785,3.179976 c 0.578716,1.006701 1.521435,1.674093 2.567744,1.934187 v 10.969802 c -0.05339,0.01298 -0.106474,0.02726 -0.159233,0.04233 L 23.367592,7.0798792 c 0.0375,-0.03592 0.0744,-0.07248 0.110485,-0.109681 z M 17.685616,7.0822852 5.2691065,28.587327 a 4.1409753,4.1409753 0 0 0 -0.161959,-0.0433 V 17.573109 c 1.046308,-0.260094 1.989029,-0.927486 2.567744,-1.934187 a 4.105056,4.105056 0 0 0 0.389179,-3.186069 L 17.568237,6.9655472 c 0.03835,0.03961 0.07745,0.07857 0.117379,0.116577 z m 3.988316,0.974149 12.413627,21.5002318 a 4.0877379,4.0877379 0 0 0 -0.723674,0.923153 4.1210915,4.1210915 0 0 0 -0.433277,1.083671 H 8.1203545 A 4.122695,4.122695 0 0 0 7.6867575,30.479819 4.1411358,4.1411358 0 0 0 6.9642055,29.56196 L 19.380232,8.0573962 a 4.1234967,4.1234967 0 0 0 1.145091,0.160995 c 0.398799,0 0.784125,-0.05644 1.148609,-0.161957 z m 1.891371,31.1852758 9.445162,-5.453312 a 4.1475499,4.1475499 0 0 1 -0.07585,-0.269713 H 8.1150635 c -0.01315,0.0534 -0.02742,0.106315 -0.04266,0.159069 l 9.4913405,5.48009 a 4.0983213,4.0983213 0 0 1 2.961577,-1.257493 4.0992833,4.0992833 0 0 1 3.03998,1.341359 z" />
  <g
     inkscape:export-ydpi="85"
     inkscape:export-xdpi="85"
     inkscape:export-filename="/home/crow/logo_1024_512.png"
     id="g1580"
     transform="matrix(0.56559986,0,0,0.82739952,-38.56484,-14.650601)"
     style="fill:#e535ab;fill-opacity:0.67459">
    <polygon
       transform="matrix(0.54492006,0,0,0.54492006,139.36843,35.161718)"
       points="20,20 12,12 20,12 28,20 20,28 12,28 "
       id="polygon1539"
       style="fill:#e535ab;fill-opacity:0.74" />
    <polygon
       transform="matrix(0.54492006,0,0,0.54492006,139.36843,35.161718)"
       points="8,20 0,12 8,12 16,20 8,28 0,28 "
       id="polygon1541"
       style="fill:#e535ab;fill-opacity:0.5" />
    <polygon
       style="fill:#e535ab;fill-opacity:1"
       id="polygon1539-9"
       points="28,20 20,28 12,28 20,20 12,12 20,12 "
       transform="matrix(0.54492006,0,0,0.54492006,145.87062,35.161718)" />
  </g>
</svg>
